<mxfile host="app.diagrams.net" modified="2023-11-25T15:59:16.207Z" agent="Mozilla/5.0 (Windows NT 10.0; Win64; x64) AppleWebKit/537.36 (KHTML, like Gecko) Chrome/119.0.0.0 Safari/537.36 Edg/119.0.0.0" etag="4K5R0tsWI6txK2Yjz-87" version="22.1.4" type="github">
  <diagram id="C5RBs43oDa-KdzZeNtuy" name="Page-1">
    <mxGraphModel dx="2004" dy="1164" grid="1" gridSize="10" guides="1" tooltips="1" connect="1" arrows="1" fold="1" page="1" pageScale="1" pageWidth="827" pageHeight="1169" math="0" shadow="0">
      <root>
        <mxCell id="WIyWlLk6GJQsqaUBKTNV-0" />
        <mxCell id="WIyWlLk6GJQsqaUBKTNV-1" parent="WIyWlLk6GJQsqaUBKTNV-0" />
        <mxCell id="Xa4yRh460kIvpp_SNqgz-0" value="&lt;font style=&quot;font-size: 24px;&quot;&gt;Start&lt;/font&gt;" style="rounded=1;whiteSpace=wrap;html=1;" parent="WIyWlLk6GJQsqaUBKTNV-1" vertex="1">
          <mxGeometry x="170" y="20" width="120" height="60" as="geometry" />
        </mxCell>
        <mxCell id="Xa4yRh460kIvpp_SNqgz-1" value="" style="endArrow=classic;html=1;rounded=0;" parent="WIyWlLk6GJQsqaUBKTNV-1" edge="1">
          <mxGeometry width="50" height="50" relative="1" as="geometry">
            <mxPoint x="229.5" y="80" as="sourcePoint" />
            <mxPoint x="230" y="140" as="targetPoint" />
            <Array as="points">
              <mxPoint x="229.5" y="140" />
            </Array>
          </mxGeometry>
        </mxCell>
        <mxCell id="Xa4yRh460kIvpp_SNqgz-2" value="&lt;font style=&quot;font-size: 18px;&quot;&gt;Display the main screen&lt;/font&gt;" style="rounded=0;whiteSpace=wrap;html=1;" parent="WIyWlLk6GJQsqaUBKTNV-1" vertex="1">
          <mxGeometry x="170" y="140" width="120" height="70" as="geometry" />
        </mxCell>
        <mxCell id="Xa4yRh460kIvpp_SNqgz-3" value="" style="endArrow=classic;html=1;rounded=0;" parent="WIyWlLk6GJQsqaUBKTNV-1" edge="1">
          <mxGeometry width="50" height="50" relative="1" as="geometry">
            <mxPoint x="229.5" y="210" as="sourcePoint" />
            <mxPoint x="230" y="270" as="targetPoint" />
          </mxGeometry>
        </mxCell>
        <mxCell id="Xa4yRh460kIvpp_SNqgz-5" style="edgeStyle=orthogonalEdgeStyle;rounded=0;orthogonalLoop=1;jettySize=auto;html=1;exitX=0.5;exitY=1;exitDx=0;exitDy=0;" parent="WIyWlLk6GJQsqaUBKTNV-1" source="Xa4yRh460kIvpp_SNqgz-4" edge="1">
          <mxGeometry relative="1" as="geometry">
            <mxPoint x="230" y="390" as="targetPoint" />
          </mxGeometry>
        </mxCell>
        <mxCell id="Xa4yRh460kIvpp_SNqgz-4" value="&lt;font style=&quot;font-size: 16px;&quot;&gt;Input user_action&lt;br&gt;1)Create account&lt;br&gt;2)Login&lt;/font&gt;" style="shape=parallelogram;perimeter=parallelogramPerimeter;whiteSpace=wrap;html=1;fixedSize=1;" parent="WIyWlLk6GJQsqaUBKTNV-1" vertex="1">
          <mxGeometry x="150" y="270" width="160" height="60" as="geometry" />
        </mxCell>
        <mxCell id="Xa4yRh460kIvpp_SNqgz-6" value="&lt;font style=&quot;font-size: 15px;&quot;&gt;If&lt;br&gt;&amp;nbsp;user_action==1&lt;/font&gt;" style="rhombus;whiteSpace=wrap;html=1;" parent="WIyWlLk6GJQsqaUBKTNV-1" vertex="1">
          <mxGeometry x="170" y="390" width="117.5" height="120" as="geometry" />
        </mxCell>
        <mxCell id="Xa4yRh460kIvpp_SNqgz-67" value="" style="endArrow=none;html=1;rounded=0;" parent="WIyWlLk6GJQsqaUBKTNV-1" edge="1">
          <mxGeometry width="50" height="50" relative="1" as="geometry">
            <mxPoint x="360" y="1180" as="sourcePoint" />
            <mxPoint x="940" y="1180" as="targetPoint" />
          </mxGeometry>
        </mxCell>
        <mxCell id="-MgJhxxluUtPRc6EGgjl-3" value="Yes" style="text;html=1;align=center;verticalAlign=middle;resizable=0;points=[];autosize=1;strokeColor=none;fillColor=none;" vertex="1" parent="WIyWlLk6GJQsqaUBKTNV-1">
          <mxGeometry x="120" y="418" width="40" height="30" as="geometry" />
        </mxCell>
        <mxCell id="-MgJhxxluUtPRc6EGgjl-4" value="No" style="text;html=1;align=center;verticalAlign=middle;resizable=0;points=[];autosize=1;strokeColor=none;fillColor=none;" vertex="1" parent="WIyWlLk6GJQsqaUBKTNV-1">
          <mxGeometry x="280" y="418" width="40" height="30" as="geometry" />
        </mxCell>
        <mxCell id="-MgJhxxluUtPRc6EGgjl-5" value="" style="endArrow=classic;html=1;rounded=0;" edge="1" parent="WIyWlLk6GJQsqaUBKTNV-1">
          <mxGeometry width="50" height="50" relative="1" as="geometry">
            <mxPoint x="100" y="448" as="sourcePoint" />
            <mxPoint x="100" y="528" as="targetPoint" />
          </mxGeometry>
        </mxCell>
        <mxCell id="-MgJhxxluUtPRc6EGgjl-6" value="" style="endArrow=none;html=1;rounded=0;entryX=0.083;entryY=0.767;entryDx=0;entryDy=0;entryPerimeter=0;" edge="1" parent="WIyWlLk6GJQsqaUBKTNV-1">
          <mxGeometry width="50" height="50" relative="1" as="geometry">
            <mxPoint x="100" y="449" as="sourcePoint" />
            <mxPoint x="169.99999999999994" y="449.18" as="targetPoint" />
          </mxGeometry>
        </mxCell>
        <mxCell id="-MgJhxxluUtPRc6EGgjl-7" value="Create_account ()" style="shape=process;whiteSpace=wrap;html=1;backgroundOutline=1;" vertex="1" parent="WIyWlLk6GJQsqaUBKTNV-1">
          <mxGeometry x="20" y="530" width="150" height="70" as="geometry" />
        </mxCell>
        <mxCell id="-MgJhxxluUtPRc6EGgjl-8" value="" style="endArrow=none;html=1;rounded=0;" edge="1" parent="WIyWlLk6GJQsqaUBKTNV-1">
          <mxGeometry width="50" height="50" relative="1" as="geometry">
            <mxPoint x="287.5" y="450" as="sourcePoint" />
            <mxPoint x="350" y="450" as="targetPoint" />
          </mxGeometry>
        </mxCell>
        <mxCell id="-MgJhxxluUtPRc6EGgjl-9" value="" style="endArrow=classic;html=1;rounded=0;" edge="1" parent="WIyWlLk6GJQsqaUBKTNV-1">
          <mxGeometry width="50" height="50" relative="1" as="geometry">
            <mxPoint x="350" y="450" as="sourcePoint" />
            <mxPoint x="350" y="530" as="targetPoint" />
          </mxGeometry>
        </mxCell>
        <mxCell id="-MgJhxxluUtPRc6EGgjl-11" style="edgeStyle=orthogonalEdgeStyle;rounded=0;orthogonalLoop=1;jettySize=auto;html=1;exitX=0.5;exitY=1;exitDx=0;exitDy=0;" edge="1" parent="WIyWlLk6GJQsqaUBKTNV-1" source="-MgJhxxluUtPRc6EGgjl-10">
          <mxGeometry relative="1" as="geometry">
            <mxPoint x="355" y="680" as="targetPoint" />
          </mxGeometry>
        </mxCell>
        <mxCell id="-MgJhxxluUtPRc6EGgjl-10" value="Login()" style="shape=process;whiteSpace=wrap;html=1;backgroundOutline=1;" vertex="1" parent="WIyWlLk6GJQsqaUBKTNV-1">
          <mxGeometry x="280" y="530" width="150" height="70" as="geometry" />
        </mxCell>
        <mxCell id="-MgJhxxluUtPRc6EGgjl-13" style="edgeStyle=orthogonalEdgeStyle;rounded=0;orthogonalLoop=1;jettySize=auto;html=1;exitX=0.5;exitY=1;exitDx=0;exitDy=0;" edge="1" parent="WIyWlLk6GJQsqaUBKTNV-1" source="-MgJhxxluUtPRc6EGgjl-12">
          <mxGeometry relative="1" as="geometry">
            <mxPoint x="355" y="840" as="targetPoint" />
            <Array as="points">
              <mxPoint x="355" y="805" />
              <mxPoint x="356" y="830" />
            </Array>
          </mxGeometry>
        </mxCell>
        <mxCell id="-MgJhxxluUtPRc6EGgjl-14" style="edgeStyle=orthogonalEdgeStyle;rounded=0;orthogonalLoop=1;jettySize=auto;html=1;exitX=1;exitY=0.5;exitDx=0;exitDy=0;" edge="1" parent="WIyWlLk6GJQsqaUBKTNV-1" source="-MgJhxxluUtPRc6EGgjl-12" target="-MgJhxxluUtPRc6EGgjl-15">
          <mxGeometry relative="1" as="geometry">
            <mxPoint x="460" y="730" as="targetPoint" />
          </mxGeometry>
        </mxCell>
        <mxCell id="-MgJhxxluUtPRc6EGgjl-12" value="user_input ==1" style="rhombus;whiteSpace=wrap;html=1;" vertex="1" parent="WIyWlLk6GJQsqaUBKTNV-1">
          <mxGeometry x="310" y="680" width="90" height="100" as="geometry" />
        </mxCell>
        <mxCell id="-MgJhxxluUtPRc6EGgjl-16" style="edgeStyle=orthogonalEdgeStyle;rounded=0;orthogonalLoop=1;jettySize=auto;html=1;exitX=1;exitY=0.5;exitDx=0;exitDy=0;" edge="1" parent="WIyWlLk6GJQsqaUBKTNV-1" source="-MgJhxxluUtPRc6EGgjl-15" target="-MgJhxxluUtPRc6EGgjl-17">
          <mxGeometry relative="1" as="geometry">
            <mxPoint x="590" y="730" as="targetPoint" />
          </mxGeometry>
        </mxCell>
        <mxCell id="-MgJhxxluUtPRc6EGgjl-20" style="edgeStyle=orthogonalEdgeStyle;rounded=0;orthogonalLoop=1;jettySize=auto;html=1;exitX=0.5;exitY=1;exitDx=0;exitDy=0;" edge="1" parent="WIyWlLk6GJQsqaUBKTNV-1" source="-MgJhxxluUtPRc6EGgjl-15">
          <mxGeometry relative="1" as="geometry">
            <mxPoint x="505" y="840" as="targetPoint" />
            <Array as="points">
              <mxPoint x="505" y="800" />
              <mxPoint x="506" y="830" />
            </Array>
          </mxGeometry>
        </mxCell>
        <mxCell id="-MgJhxxluUtPRc6EGgjl-15" value="user_input==2" style="rhombus;whiteSpace=wrap;html=1;" vertex="1" parent="WIyWlLk6GJQsqaUBKTNV-1">
          <mxGeometry x="460" y="690" width="90" height="80" as="geometry" />
        </mxCell>
        <mxCell id="-MgJhxxluUtPRc6EGgjl-18" style="edgeStyle=orthogonalEdgeStyle;rounded=0;orthogonalLoop=1;jettySize=auto;html=1;exitX=1;exitY=0.5;exitDx=0;exitDy=0;" edge="1" parent="WIyWlLk6GJQsqaUBKTNV-1" source="-MgJhxxluUtPRc6EGgjl-17" target="-MgJhxxluUtPRc6EGgjl-19">
          <mxGeometry relative="1" as="geometry">
            <mxPoint x="720" y="730" as="targetPoint" />
          </mxGeometry>
        </mxCell>
        <mxCell id="-MgJhxxluUtPRc6EGgjl-37" style="edgeStyle=orthogonalEdgeStyle;rounded=0;orthogonalLoop=1;jettySize=auto;html=1;exitX=0.5;exitY=1;exitDx=0;exitDy=0;" edge="1" parent="WIyWlLk6GJQsqaUBKTNV-1" source="-MgJhxxluUtPRc6EGgjl-17">
          <mxGeometry relative="1" as="geometry">
            <mxPoint x="635" y="840" as="targetPoint" />
          </mxGeometry>
        </mxCell>
        <mxCell id="-MgJhxxluUtPRc6EGgjl-17" value="user_input==3" style="rhombus;whiteSpace=wrap;html=1;" vertex="1" parent="WIyWlLk6GJQsqaUBKTNV-1">
          <mxGeometry x="590" y="690" width="90" height="80" as="geometry" />
        </mxCell>
        <mxCell id="-MgJhxxluUtPRc6EGgjl-29" style="edgeStyle=orthogonalEdgeStyle;rounded=0;orthogonalLoop=1;jettySize=auto;html=1;exitX=1;exitY=0.5;exitDx=0;exitDy=0;" edge="1" parent="WIyWlLk6GJQsqaUBKTNV-1" source="-MgJhxxluUtPRc6EGgjl-19">
          <mxGeometry relative="1" as="geometry">
            <mxPoint x="850" y="730" as="targetPoint" />
          </mxGeometry>
        </mxCell>
        <mxCell id="-MgJhxxluUtPRc6EGgjl-19" value="user_input==4" style="rhombus;whiteSpace=wrap;html=1;" vertex="1" parent="WIyWlLk6GJQsqaUBKTNV-1">
          <mxGeometry x="720" y="690" width="90" height="80" as="geometry" />
        </mxCell>
        <mxCell id="-MgJhxxluUtPRc6EGgjl-23" value="Yes" style="text;html=1;align=center;verticalAlign=middle;resizable=0;points=[];autosize=1;strokeColor=none;fillColor=none;" vertex="1" parent="WIyWlLk6GJQsqaUBKTNV-1">
          <mxGeometry x="310" y="788" width="40" height="30" as="geometry" />
        </mxCell>
        <mxCell id="-MgJhxxluUtPRc6EGgjl-24" value="No" style="text;html=1;align=center;verticalAlign=middle;resizable=0;points=[];autosize=1;strokeColor=none;fillColor=none;" vertex="1" parent="WIyWlLk6GJQsqaUBKTNV-1">
          <mxGeometry x="410" y="698" width="40" height="30" as="geometry" />
        </mxCell>
        <mxCell id="-MgJhxxluUtPRc6EGgjl-25" value="Yes" style="text;html=1;align=center;verticalAlign=middle;resizable=0;points=[];autosize=1;strokeColor=none;fillColor=none;" vertex="1" parent="WIyWlLk6GJQsqaUBKTNV-1">
          <mxGeometry x="460" y="778" width="40" height="30" as="geometry" />
        </mxCell>
        <mxCell id="-MgJhxxluUtPRc6EGgjl-26" value="No" style="text;html=1;align=center;verticalAlign=middle;resizable=0;points=[];autosize=1;strokeColor=none;fillColor=none;" vertex="1" parent="WIyWlLk6GJQsqaUBKTNV-1">
          <mxGeometry x="550" y="690" width="40" height="30" as="geometry" />
        </mxCell>
        <mxCell id="-MgJhxxluUtPRc6EGgjl-27" value="Yes" style="text;html=1;align=center;verticalAlign=middle;resizable=0;points=[];autosize=1;strokeColor=none;fillColor=none;" vertex="1" parent="WIyWlLk6GJQsqaUBKTNV-1">
          <mxGeometry x="590" y="778" width="40" height="30" as="geometry" />
        </mxCell>
        <mxCell id="-MgJhxxluUtPRc6EGgjl-28" value="No" style="text;html=1;align=center;verticalAlign=middle;resizable=0;points=[];autosize=1;strokeColor=none;fillColor=none;" vertex="1" parent="WIyWlLk6GJQsqaUBKTNV-1">
          <mxGeometry x="670" y="698" width="40" height="30" as="geometry" />
        </mxCell>
        <mxCell id="-MgJhxxluUtPRc6EGgjl-30" value="Yes" style="text;html=1;align=center;verticalAlign=middle;resizable=0;points=[];autosize=1;strokeColor=none;fillColor=none;" vertex="1" parent="WIyWlLk6GJQsqaUBKTNV-1">
          <mxGeometry x="720" y="778" width="40" height="30" as="geometry" />
        </mxCell>
        <mxCell id="-MgJhxxluUtPRc6EGgjl-31" value="No" style="text;html=1;align=center;verticalAlign=middle;resizable=0;points=[];autosize=1;strokeColor=none;fillColor=none;" vertex="1" parent="WIyWlLk6GJQsqaUBKTNV-1">
          <mxGeometry x="800" y="698" width="40" height="30" as="geometry" />
        </mxCell>
        <mxCell id="-MgJhxxluUtPRc6EGgjl-32" value="Display &quot;Enter a valid choice&quot;" style="rounded=0;whiteSpace=wrap;html=1;" vertex="1" parent="WIyWlLk6GJQsqaUBKTNV-1">
          <mxGeometry x="850" y="700" width="140" height="70" as="geometry" />
        </mxCell>
        <mxCell id="-MgJhxxluUtPRc6EGgjl-33" value="Account_Details()" style="shape=process;whiteSpace=wrap;html=1;backgroundOutline=1;" vertex="1" parent="WIyWlLk6GJQsqaUBKTNV-1">
          <mxGeometry x="295" y="840" width="120" height="60" as="geometry" />
        </mxCell>
        <mxCell id="-MgJhxxluUtPRc6EGgjl-34" value="Transfer_Money()" style="shape=process;whiteSpace=wrap;html=1;backgroundOutline=1;" vertex="1" parent="WIyWlLk6GJQsqaUBKTNV-1">
          <mxGeometry x="450" y="840" width="120" height="60" as="geometry" />
        </mxCell>
        <mxCell id="-MgJhxxluUtPRc6EGgjl-35" value="Check_Balance()" style="shape=process;whiteSpace=wrap;html=1;backgroundOutline=1;" vertex="1" parent="WIyWlLk6GJQsqaUBKTNV-1">
          <mxGeometry x="590" y="840" width="120" height="60" as="geometry" />
        </mxCell>
        <mxCell id="-MgJhxxluUtPRc6EGgjl-38" value="Logout()" style="shape=process;whiteSpace=wrap;html=1;backgroundOutline=1;" vertex="1" parent="WIyWlLk6GJQsqaUBKTNV-1">
          <mxGeometry x="720" y="840" width="120" height="60" as="geometry" />
        </mxCell>
        <mxCell id="-MgJhxxluUtPRc6EGgjl-39" style="edgeStyle=orthogonalEdgeStyle;rounded=0;orthogonalLoop=1;jettySize=auto;html=1;exitX=0.5;exitY=1;exitDx=0;exitDy=0;entryX=0.383;entryY=-0.037;entryDx=0;entryDy=0;entryPerimeter=0;" edge="1" parent="WIyWlLk6GJQsqaUBKTNV-1" source="-MgJhxxluUtPRc6EGgjl-19" target="-MgJhxxluUtPRc6EGgjl-38">
          <mxGeometry relative="1" as="geometry" />
        </mxCell>
        <mxCell id="-MgJhxxluUtPRc6EGgjl-40" value="" style="endArrow=none;html=1;rounded=0;" edge="1" parent="WIyWlLk6GJQsqaUBKTNV-1">
          <mxGeometry width="50" height="50" relative="1" as="geometry">
            <mxPoint x="354.17" y="900" as="sourcePoint" />
            <mxPoint x="354" y="1000" as="targetPoint" />
          </mxGeometry>
        </mxCell>
        <mxCell id="-MgJhxxluUtPRc6EGgjl-41" value="" style="endArrow=none;html=1;rounded=0;" edge="1" parent="WIyWlLk6GJQsqaUBKTNV-1">
          <mxGeometry width="50" height="50" relative="1" as="geometry">
            <mxPoint x="350" y="1000" as="sourcePoint" />
            <mxPoint x="790" y="1000" as="targetPoint" />
          </mxGeometry>
        </mxCell>
        <mxCell id="-MgJhxxluUtPRc6EGgjl-42" value="" style="endArrow=none;html=1;rounded=0;exitX=0.5;exitY=1;exitDx=0;exitDy=0;" edge="1" parent="WIyWlLk6GJQsqaUBKTNV-1" source="-MgJhxxluUtPRc6EGgjl-34">
          <mxGeometry width="50" height="50" relative="1" as="geometry">
            <mxPoint x="509.17" y="910" as="sourcePoint" />
            <mxPoint x="509.17" y="1000" as="targetPoint" />
          </mxGeometry>
        </mxCell>
        <mxCell id="-MgJhxxluUtPRc6EGgjl-43" value="" style="endArrow=none;html=1;rounded=0;" edge="1" parent="WIyWlLk6GJQsqaUBKTNV-1">
          <mxGeometry width="50" height="50" relative="1" as="geometry">
            <mxPoint x="650" y="1000" as="sourcePoint" />
            <mxPoint x="650" y="900" as="targetPoint" />
          </mxGeometry>
        </mxCell>
        <mxCell id="-MgJhxxluUtPRc6EGgjl-44" value="" style="endArrow=none;html=1;rounded=0;" edge="1" parent="WIyWlLk6GJQsqaUBKTNV-1">
          <mxGeometry width="50" height="50" relative="1" as="geometry">
            <mxPoint x="785" y="1000" as="sourcePoint" />
            <mxPoint x="785" y="900" as="targetPoint" />
          </mxGeometry>
        </mxCell>
        <mxCell id="-MgJhxxluUtPRc6EGgjl-46" value="" style="endArrow=classic;html=1;rounded=0;" edge="1" parent="WIyWlLk6GJQsqaUBKTNV-1">
          <mxGeometry width="50" height="50" relative="1" as="geometry">
            <mxPoint x="590" y="1000" as="sourcePoint" />
            <mxPoint x="590" y="1080" as="targetPoint" />
          </mxGeometry>
        </mxCell>
        <mxCell id="-MgJhxxluUtPRc6EGgjl-47" value="END" style="rounded=1;whiteSpace=wrap;html=1;" vertex="1" parent="WIyWlLk6GJQsqaUBKTNV-1">
          <mxGeometry x="530" y="1080" width="120" height="60" as="geometry" />
        </mxCell>
      </root>
    </mxGraphModel>
  </diagram>
</mxfile>
